<svg width="31" height="30" viewBox="0 0 31 30" fill="none" xmlns="http://www.w3.org/2000/svg">
<path d="M25.8333 11.25H14.2083C12.7816 11.25 11.625 12.3693 11.625 13.75V25C11.625 26.3807 12.7816 27.5 14.2083 27.5H25.8333C27.2601 27.5 28.4167 26.3807 28.4167 25V13.75C28.4167 12.3693 27.2601 11.25 25.8333 11.25Z" stroke="#4A1A34" stroke-width="2" stroke-linecap="round" stroke-linejoin="round"/>
<path d="M6.45898 18.75H5.16732C4.48218 18.75 3.82509 18.4866 3.34063 18.0178C2.85616 17.5489 2.58398 16.913 2.58398 16.25V5C2.58398 4.33696 2.85616 3.70107 3.34063 3.23223C3.82509 2.76339 4.48218 2.5 5.16732 2.5H16.7923C17.4775 2.5 18.1345 2.76339 18.619 3.23223C19.1035 3.70107 19.3757 4.33696 19.3757 5V6.25" stroke="#4A1A34" stroke-width="2" stroke-linecap="round" stroke-linejoin="round"/>
</svg>
