<svg width="44" height="44" viewBox="0 0 44 44" fill="none" xmlns="http://www.w3.org/2000/svg">
<path d="M38.5 18.3333C38.5 31.1666 22 42.1666 22 42.1666C22 42.1666 5.5 31.1666 5.5 18.3333C5.5 13.9572 7.23839 9.76034 10.3327 6.66599C13.4271 3.57164 17.6239 1.83325 22 1.83325C26.3761 1.83325 30.5729 3.57164 33.6673 6.66599C36.7616 9.76034 38.5 13.9572 38.5 18.3333Z" stroke="white" stroke-width="2" stroke-linecap="round" stroke-linejoin="round"/>
<path d="M22 23.8333C25.0376 23.8333 27.5 21.3708 27.5 18.3333C27.5 15.2957 25.0376 12.8333 22 12.8333C18.9624 12.8333 16.5 15.2957 16.5 18.3333C16.5 21.3708 18.9624 23.8333 22 23.8333Z" stroke="white" stroke-width="2" stroke-linecap="round" stroke-linejoin="round"/>
</svg>
